<svg width="118" height="30" viewBox="0 0 118 30" fill="none" xmlns="http://www.w3.org/2000/svg">
<path d="M16 15L4 21.9282V8.0718L16 15Z" fill="white"/>
<path d="M16 15L28 21.9282V8.0718L16 15Z" fill="white"/>
<path d="M53.4271 7.96V22H50.0071V13.58L46.8671 22H44.1071L40.9471 13.56V22H37.5271V7.96H41.5671L45.5071 17.68L49.4071 7.96H53.4271ZM55.2065 16.4C55.2065 15.2533 55.4198 14.2467 55.8465 13.38C56.2865 12.5133 56.8798 11.8467 57.6265 11.38C58.3732 10.9133 59.2065 10.68 60.1265 10.68C60.9132 10.68 61.5998 10.84 62.1865 11.16C62.7865 11.48 63.2465 11.9 63.5665 12.42V10.84H66.9865V22H63.5665V20.42C63.2332 20.94 62.7665 21.36 62.1665 21.68C61.5798 22 60.8932 22.16 60.1065 22.16C59.1998 22.16 58.3732 21.9267 57.6265 21.46C56.8798 20.98 56.2865 20.3067 55.8465 19.44C55.4198 18.56 55.2065 17.5467 55.2065 16.4ZM63.5665 16.42C63.5665 15.5667 63.3265 14.8933 62.8465 14.4C62.3798 13.9067 61.8065 13.66 61.1265 13.66C60.4465 13.66 59.8665 13.9067 59.3865 14.4C58.9198 14.88 58.6865 15.5467 58.6865 16.4C58.6865 17.2533 58.9198 17.9333 59.3865 18.44C59.8665 18.9333 60.4465 19.18 61.1265 19.18C61.8065 19.18 62.3798 18.9333 62.8465 18.44C63.3265 17.9467 63.5665 17.2733 63.5665 16.42ZM76.0607 22L73.9207 18.9L72.1207 22H68.4207L72.1007 16.3L68.3207 10.84H72.1607L74.3007 13.92L76.1007 10.84H79.8007L76.0607 16.46L79.9007 22H76.0607ZM97.1185 7.96V22H93.6985V13.58L90.5585 22H87.7985L84.6385 13.56V22H81.2185V7.96H85.2585L89.1985 17.68L93.0985 7.96H97.1185ZM101.298 9.68C100.698 9.68 100.205 9.50667 99.8179 9.16C99.4446 8.8 99.2579 8.36 99.2579 7.84C99.2579 7.30667 99.4446 6.86667 99.8179 6.52C100.205 6.16 100.698 5.98 101.298 5.98C101.885 5.98 102.365 6.16 102.738 6.52C103.125 6.86667 103.318 7.30667 103.318 7.84C103.318 8.36 103.125 8.8 102.738 9.16C102.365 9.50667 101.885 9.68 101.298 9.68ZM102.998 10.84V22H99.5779V10.84H102.998ZM112.276 10.72C113.583 10.72 114.623 11.1467 115.396 12C116.183 12.84 116.576 14 116.576 15.48V22H113.176V15.94C113.176 15.1933 112.983 14.6133 112.596 14.2C112.21 13.7867 111.69 13.58 111.036 13.58C110.383 13.58 109.863 13.7867 109.476 14.2C109.09 14.6133 108.896 15.1933 108.896 15.94V22H105.476V10.84H108.896V12.32C109.243 11.8267 109.71 11.44 110.296 11.16C110.883 10.8667 111.543 10.72 112.276 10.72Z" fill="white"/>
</svg>
